<?xml version="1.0" standalone="no"?>
<!DOCTYPE svg PUBLIC "-//W3C//DTD SVG 20010904//EN"
 "http://www.w3.org/TR/2001/REC-SVG-20010904/DTD/svg10.dtd">
<svg version="1.0" xmlns="http://www.w3.org/2000/svg"
 width="824.000000pt" height="824.000000pt" viewBox="0 0 824.000000 824.000000"
 preserveAspectRatio="xMidYMid meet">
<metadata>
Created by potrace 1.14, written by Peter Selinger 2001-2017
</metadata>
<g transform="translate(0.000000,824.000000) scale(0.100000,-0.100000)"
fill="#000000" stroke="none">
<path d="M2988 7065 c-2 -3 -22 -7 -44 -11 -54 -8 -150 -48 -193 -81 -71 -54
-125 -126 -252 -343 -40 -69 -76 -127 -79 -130 -3 -3 -23 -32 -44 -65 -47 -73
-163 -230 -197 -267 -13 -15 -34 -40 -46 -56 -12 -15 -75 -82 -140 -149 -65
-66 -139 -151 -163 -189 -25 -38 -48 -71 -51 -74 -4 -3 -29 -48 -56 -100 -100
-191 -150 -360 -178 -600 -3 -25 -7 -61 -10 -80 -2 -19 -7 -75 -11 -125 -13
-183 -22 -266 -34 -315 -5 -19 -11 -46 -14 -60 -13 -63 -33 -145 -46 -180 -63
-179 -85 -236 -93 -241 -5 -3 -9 -10 -9 -15 -1 -17 -10 -40 -53 -124 -61 -122
-79 -155 -87 -158 -5 -2 -8 -10 -8 -18 0 -8 -4 -14 -10 -14 -5 0 -10 -7 -10
-15 0 -8 -4 -15 -10 -15 -5 0 -10 -7 -10 -15 0 -8 -4 -15 -8 -15 -4 0 -15 -13
-25 -29 -9 -16 -46 -58 -81 -93 -167 -167 -293 -163 -435 16 -57 72 -166 254
-176 296 -1 3 -12 28 -24 55 -54 121 -80 202 -106 335 -17 86 -67 177 -104
192 -80 31 -161 22 -161 -17 0 -8 -4 -15 -9 -15 -15 0 -6 -128 13 -200 14 -55
104 -331 123 -380 3 -8 7 -19 8 -25 2 -5 17 -47 33 -92 17 -46 29 -83 27 -83
-2 0 2 -14 35 -98 55 -146 163 -322 251 -413 139 -143 284 -214 499 -247 89
-13 357 -7 478 12 18 3 52 8 75 11 23 4 62 11 87 17 25 5 56 12 70 14 27 5
173 50 205 64 23 9 105 46 150 67 17 7 37 17 45 23 102 62 459 270 538 313
104 56 143 73 152 66 2 -2 5 -389 5 -859 1 -921 0 -914 53 -1008 26 -46 117
-145 157 -170 46 -29 144 -70 195 -82 42 -11 161 -14 495 -14 242 0 456 3 475
7 81 15 171 53 234 102 50 38 115 105 116 119 0 5 6 17 13 25 12 15 50 104 44
105 -21 7 -43 28 -45 45 -2 11 -7 21 -11 21 -5 0 -20 12 -34 26 -22 22 -28 24
-47 12 -39 -24 -50 24 -29 124 6 29 18 62 25 73 8 11 14 28 14 38 0 9 12 45
26 79 14 33 26 69 27 79 1 10 9 20 18 22 18 5 99 109 99 128 0 7 7 20 16 30
15 16 15 20 0 50 -9 18 -16 45 -16 60 0 18 -8 34 -20 41 -11 7 -20 22 -20 33
0 11 -4 26 -9 34 -5 8 -5 26 1 43 17 49 -4 96 -73 162 -93 91 -111 154 -52
186 25 14 28 21 28 65 0 42 4 51 24 61 31 16 42 35 29 51 -8 10 -14 10 -24 2
-11 -9 -17 -4 -29 24 -8 20 -15 41 -15 46 0 6 -29 43 -65 84 -60 69 -65 78
-65 121 0 41 -2 46 -21 43 -16 -1 -23 4 -25 21 -3 19 -1 22 21 16 17 -4 25 -2
26 7 4 50 7 67 18 87 6 12 9 27 6 33 -7 11 20 74 36 84 5 4 21 -1 35 -10 15
-10 32 -14 42 -9 25 11 24 11 59 19 18 4 32 10 31 14 -2 23 6 31 31 31 28 0
45 13 46 35 0 6 9 10 21 10 11 0 28 6 36 12 12 11 18 9 33 -7 13 -14 22 -17
35 -10 30 16 69 -47 40 -65 -24 -15 9 -76 38 -70 9 2 31 7 48 10 36 8 53 -8
33 -31 -9 -10 -9 -21 -2 -37 14 -31 8 -95 -11 -116 -14 -15 -14 -19 0 -33 15
-14 14 -20 -11 -62 -22 -38 -25 -49 -15 -61 19 -23 31 -18 88 34 28 27 52 46
52 43 0 -3 5 -1 12 6 17 17 53 15 68 -3 7 -8 16 -13 20 -10 4 3 13 -2 20 -10
8 -9 17 -12 24 -7 6 5 22 12 36 15 14 4 36 23 49 42 21 31 28 35 50 29 14 -3
37 -8 51 -10 26 -3 43 -21 94 -94 16 -24 34 -39 41 -36 23 9 31 -17 29 -94 -1
-70 1 -77 26 -101 15 -14 29 -30 31 -37 2 -6 15 -13 29 -16 14 -2 27 -5 29 -5
2 -1 -2 -7 -8 -14 -8 -11 -5 -16 14 -25 28 -13 34 -47 10 -56 -21 -8 -19 -53
3 -65 14 -8 15 -13 5 -30 -7 -12 -13 -32 -13 -46 0 -40 -74 -71 -99 -41 -8 10
-21 12 -47 6 -31 -7 -116 -5 -169 4 -11 2 -24 1 -30 -3 -5 -3 -19 -7 -30 -8
-34 -6 -60 -29 -79 -70 -10 -22 -30 -47 -45 -56 -29 -17 -36 -51 -15 -78 5 -8
11 -27 13 -44 1 -16 14 -41 27 -56 27 -28 36 -91 10 -70 -10 8 -16 9 -21 2
-12 -21 -95 34 -109 73 -5 13 -12 17 -29 11 -24 -7 -136 -7 -148 1 -5 3 -7 30
-5 60 4 64 -10 84 -55 84 -35 0 -99 -25 -99 -39 0 -5 5 -13 11 -17 7 -4 9 -20
5 -43 -4 -20 -9 -60 -11 -89 -3 -38 -15 -70 -39 -110 -29 -48 -51 -104 -57
-147 -1 -5 -10 -22 -20 -37 -10 -14 -19 -35 -19 -46 0 -11 -7 -27 -15 -36 -15
-14 -13 -25 12 -86 3 -8 5 -25 4 -37 -3 -25 19 -30 62 -14 43 17 52 -2 56
-111 1 -10 7 -18 14 -18 23 0 43 -33 46 -74 2 -35 27 -91 53 -124 6 -7 9 -15
6 -18 -6 -5 -50 44 -66 73 -5 9 -14 13 -21 9 -27 -17 56 -106 99 -106 6 0 20
-9 32 -20 16 -14 30 -18 56 -14 31 5 39 1 86 -46 53 -53 105 -79 262 -135 43
-15 86 -30 94 -33 8 -3 20 -6 25 -7 6 -2 30 -8 55 -15 25 -7 52 -14 60 -16 8
-2 33 -8 55 -13 64 -16 121 -26 205 -36 30 -3 69 -9 85 -12 89 -15 555 -6 648
13 12 2 39 6 59 9 175 23 499 120 649 195 79 40 195 104 230 127 23 15 49 33
58 38 8 6 47 34 86 64 291 226 487 522 581 881 29 107 32 120 39 170 3 20 8
47 11 60 20 97 27 448 10 565 -17 122 -29 185 -52 278 -8 34 -17 73 -20 86 -3
14 -8 29 -12 35 -3 6 -7 20 -8 31 -2 19 -67 207 -94 270 -7 17 -18 44 -25 60
-50 120 -179 381 -234 473 -17 29 -31 55 -31 57 0 7 -142 219 -154 230 -6 6
-27 30 -46 55 -128 166 -317 353 -557 550 -47 39 -223 169 -252 186 -17 10
-31 22 -31 26 0 4 -4 8 -9 8 -6 0 -38 19 -73 43 -219 150 -622 363 -891 472
-34 14 -70 30 -79 35 -10 6 -23 10 -28 10 -6 0 -30 9 -52 20 -23 11 -49 20
-58 20 -9 0 -20 4 -26 8 -13 12 -302 107 -389 128 -5 1 -37 10 -70 19 -54 15
-88 23 -163 39 -13 3 -32 8 -42 11 -20 6 -39 10 -91 19 -19 3 -45 8 -59 11
-14 3 -41 7 -60 10 -19 2 -51 7 -70 10 -83 13 -194 26 -274 31 -87 5 -352 5
-407 -1 l-47 -4 0 32 c-1 52 -58 164 -111 218 -9 9 -30 31 -47 50 -117 129
-215 180 -429 224 -56 12 -238 19 -247 10z m1729 -1500 c52 -70 135 -218 163
-289 161 -401 18 -743 -395 -945 -55 -27 -113 -53 -130 -57 -16 -4 -34 -9 -40
-13 -5 -3 -14 -6 -20 -7 -5 -1 -39 -9 -75 -17 -114 -27 -320 -53 -320 -42 0 3
62 23 90 30 25 5 123 42 153 57 20 10 37 15 37 11 0 -5 4 -3 8 3 4 6 23 19 42
29 65 33 165 109 235 180 69 69 175 215 175 241 0 8 5 14 10 14 6 0 10 8 10
18 0 10 4 22 8 27 12 14 39 92 52 150 7 28 14 59 17 70 2 11 6 72 8 136 4 161
-18 279 -84 449 l-22 55 28 -35 c15 -19 38 -48 50 -65z m-1948 -447 c25 -13
59 -40 75 -61 54 -68 41 -180 -28 -240 -58 -50 -150 -67 -229 -42 -189 59
-193 292 -6 355 66 23 126 19 188 -12z"/>
</g>
</svg>
