<svg width="78" height="46" viewBox="0 0 78 46" fill="none" xmlns="http://www.w3.org/2000/svg">
<path d="M75 20C76.6569 20 78 21.3431 78 23C78 24.6569 76.6569 26 75 26V20ZM0.87868 25.1213C-0.292893 23.9497 -0.292893 22.0503 0.87868 20.8787L19.9706 1.7868C21.1421 0.615224 23.0416 0.615224 24.2132 1.7868C25.3848 2.95837 25.3848 4.85786 24.2132 6.02944L7.24264 23L24.2132 39.9706C25.3848 41.1421 25.3848 43.0416 24.2132 44.2132C23.0416 45.3848 21.1421 45.3848 19.9706 44.2132L0.87868 25.1213ZM75 26H3V20H75V26Z" fill="#D8C79D"/>
</svg>
