<?xml version="1.0" encoding="utf-8"?>
<!-- Generator: Adobe Illustrator 28.0.0, SVG Export Plug-In . SVG Version: 6.00 Build 0)  -->
<svg version="1.1" id="Layer_1" xmlns="http://www.w3.org/2000/svg" xmlns:xlink="http://www.w3.org/1999/xlink" x="0px" y="0px"
	 viewBox="0 0 54.193 55.459" enable-background="new 0 0 54.193 55.459" xml:space="preserve">
<g>
	<defs>
		<rect id="SVGID_1_" x="-13.337" y="-1.464" width="80.964" height="58.388"/>
	</defs>
	<clipPath id="SVGID_00000175301473507953023760000009293148241539596940_">
		<use xlink:href="#SVGID_1_"  overflow="visible"/>
	</clipPath>
	<path clip-path="url(#SVGID_00000175301473507953023760000009293148241539596940_)" fill="#231F20" d="M10.36,25.638
		c4.535,0.012,9.069,0.024,13.604,0.036v15.984c-2.161,0-5.354,0-7.515,0c-1.165-0.067-2.147,0.801-2.24,1.851
		c-0.101,1.148,0.886,2.245,2.168,2.225c0.809-0.019,1.618-0.038,2.426-0.057v4.335c-7.978,3.704-13.454-4.013-11.182-11.102
		c0.178-0.53,0.535-1.565,1.344-2.588c0.435-0.55,2.17-2.576,4.502-2.738c3.156-0.219,5.368,3.117,6.275,2.396
		c0.348-0.246,0.032-4.576-0.206-4.624c-0.579-0.944-1.838-1.11-4.045-1.403c-1.269-0.168-2.217-0.303-3.497-0.151
		c-0.797,0.094-3.098,0.393-5.202,1.957c-5.652,4.476-5.605,13.946-0.057,19.338c5.365,4.988,13.702,2.198,14.718,1.426
		c0.72-0.547,1.148-1.242,1.148-1.242c0.23-0.374,0.359-0.712,0.429-0.926V45.9h5.2c1.185,0.12,10.984,0.946,17.952-6.528
		c0.402-0.431,6.096-6.735,5.476-15.659C50.848,12.051,39.54,1.648,27.614,1.466c-6.417-0.098-13.32,2.753-17.418,8.077
		C6.037,15.031,2.592,26.132,10.36,25.638z M18.803,4.649 M39.022,43.302 M14.77,45.9 M36.737,21.778H11.164
		C11.004,14.925,16.67,9.346,23.03,7.739c6.151-1.785,13.613,1.191,16.679,3.854c7.256,6.381,7.646,12.078,6.061,18.64
		c-2.22,7.921-8.844,11.906-17.49,11.387c-0.002-0.002-0.003-0.003-0.004-0.005V25.673h8.461c1.349,0.156,2.444-0.806,2.515-1.789
		C39.327,22.822,38.215,21.636,36.737,21.778z"/>
</g>
</svg>
