<svg width="104" height="75" viewBox="0 0 104 75" fill="none" xmlns="http://www.w3.org/2000/svg">
<g clip-path="url(#clip0_2_454)">
<g opacity="0.47">
<mask id="mask0_2_454" style="mask-type:luminance" maskUnits="userSpaceOnUse" x="0" y="0" width="104" height="75">
<path d="M103.995 0H0V75H103.995V0Z" fill="white"/>
</mask>
<g mask="url(#mask0_2_454)">
<path d="M98.8072 33.2947C98.7466 33.18 98.3694 32.4439 97.9968 31.7827C89.8141 17.3328 64.9912 5.24569 48.2439 6.85466C48.2299 6.85466 48.216 6.84585 48.2206 6.83262C48.6258 4.85778 44.9187 1.65306 44.4716 1.41943C43.9546 1.14613 39.9075 -0.921287 36.1026 0.498132C32.6795 1.77208 32.9264 4.58006 27.8687 11.0203C25.1069 14.5336 24.8322 13.9562 23.2301 16.2572C19.7977 21.1899 19.5462 24.7473 19.1085 30.6983C18.6241 37.2576 13.8831 47.0789 10.162 47.1142C9.39353 47.123 7.03699 46.7086 4.09364 38.774C3.77229 38.4389 3.63723 34.6612 2.20281 34.1146C2.04447 34.0528 1.05714 33.7002 0.456362 34.1146C-0.577537 34.8287 0.270074 37.2972 1.80229 41.7627C2.0305 42.4239 2.3891 43.4863 2.60333 44.1519C2.84085 44.8925 2.89208 45.0952 3.06905 45.5404C6.21266 53.4619 11.0422 55.4147 20.3519 53.6955C20.4171 53.6823 20.487 53.669 20.5522 53.6558C25.908 52.6199 28.1388 50.385 33.1825 47.6211C33.923 47.2155 34.6402 46.8497 35.3528 46.5014C35.3668 46.5102 35.3714 46.5102 35.39 46.5235V67.753C35.39 71.0944 38.4591 73.801 42.2454 73.801H51.4574C54.6429 73.801 57.2742 71.8129 57.9169 69.1725C57.875 69.1636 57.8191 69.1548 57.7167 69.1372C57.4372 69.0887 57.3441 68.8639 57.3441 68.8639C57.3441 68.8639 57.2882 68.5641 57.2882 68.4672C57.2882 68.3702 56.8923 68.2423 56.7526 68.1365C56.6129 68.0308 56.6362 67.7486 56.4732 67.7134C56.3148 67.6737 56.1938 68.0616 55.9516 68.0528C55.7048 68.044 55.6535 67.5723 55.6628 67.2726C55.6721 66.9728 55.8631 65.8311 55.8631 65.8311L56.2683 65.1919V64.7379C56.2683 64.7379 56.7806 63.486 56.8784 63.3537C56.9762 63.2215 56.9436 62.8644 56.9855 62.7322C57.0274 62.5999 57.3487 62.6264 57.3487 62.6264L58.4478 61.11C58.4478 61.11 58.4246 60.7882 58.4804 60.7044C58.5363 60.6207 58.7599 60.6119 58.7599 60.6119V60.365C58.7599 60.1975 58.4804 59.6685 58.4199 59.5627C58.3547 59.4569 58.4618 58.8486 58.3687 58.8354C58.2709 58.8266 57.9635 58.4386 57.9262 58.3725C57.889 58.3064 57.9262 57.9582 57.9262 57.9582C57.9262 57.9582 57.8145 57.892 57.7586 57.773C57.7073 57.654 57.7073 57.4865 57.8331 57.2969C57.9588 57.1074 57.9495 56.9002 57.8331 56.4109C57.7167 55.9216 57.1578 55.4103 57.1578 55.4103L56.9855 55.3353C56.8132 55.2604 56.8411 55.2824 56.4592 54.824C56.0773 54.3655 55.7793 53.9291 55.7793 53.4266C55.7793 52.9241 56.5943 52.7874 56.5943 52.7874C56.5943 52.7874 56.571 51.7515 56.5943 51.4914C56.6176 51.2313 57.0693 51.2931 57.2277 51.174C57.386 51.055 57.3627 50.5569 57.2277 50.5172C57.0926 50.4776 56.7992 50.7949 56.7992 50.7949L56.3195 49.4593L54.7733 47.7225C54.7733 47.7225 54.778 47.1097 54.7733 46.8849C54.7687 46.6601 54.6988 46.497 54.6057 46.497C54.5125 46.497 54.4892 46.6866 54.3495 46.6866C54.2098 46.6866 54.1818 46.4133 54.2098 46.3119C54.2377 46.2105 54.0142 45.9328 54.0142 45.9328C54.0142 45.9328 54.4613 46.1488 54.6057 46.14C54.75 46.1311 54.8432 45.9636 54.8432 45.9636C54.8432 45.9636 54.8478 45.1658 54.8432 45.1085C54.8385 45.0467 55.1179 44.8396 55.1179 44.7205C55.1179 44.6015 55.0155 44.4825 55.0155 44.3811C55.0155 44.2797 55.1785 44.0285 55.1971 43.9491C55.2157 43.8654 55.4719 43.3408 55.6582 43.3496C55.8445 43.354 56.231 43.7419 56.3754 43.7419C56.5198 43.7419 56.6502 43.5259 56.6502 43.5259H57.0833V43.3761C57.0833 43.3761 57.2463 43.3761 57.4139 43.3805C57.5816 43.3849 57.6375 43.2614 57.6375 43.2614L57.6654 42.8162L58.3314 42.8471L58.6015 42.6708L58.6295 42.1418L59.0626 42.393C59.0626 42.393 59.3281 41.9963 59.5749 42.0228C59.8264 42.0492 59.9381 42.4636 59.9801 42.468C60.022 42.4724 60.1431 42.2476 60.3294 42.2476C60.5156 42.2476 60.8556 42.6884 60.8696 42.8603C60.8836 43.0322 60.6134 43.332 60.6134 43.332V43.6229C60.6134 43.6229 60.6693 44.0373 61.2142 44.0549C61.7591 44.0725 61.8802 43.6582 62.2388 43.8962C62.5974 44.1343 62.2854 44.2356 62.2854 44.2356C62.2854 44.2356 61.9221 44.6324 62.1503 44.7778C62.3785 44.9189 62.3133 45.3553 62.2994 45.73C62.2854 46.1047 61.8616 46.3868 61.8662 46.497C61.8709 46.6116 62.1829 46.6513 62.1829 46.9466C62.1829 47.242 62.0106 47.3125 61.9361 47.4359C61.8616 47.5594 61.6893 47.6696 61.7125 47.8239C61.7358 47.9781 61.4657 48.1545 61.4657 48.1545C61.4657 48.1545 61.8383 48.3881 62.0339 48.419C62.2248 48.4454 62.6533 47.912 62.7604 47.7886C62.8675 47.6652 63.1889 47.6079 63.1889 47.5329C63.1889 47.458 63.3612 47.2244 63.4543 47.2332C63.5521 47.242 63.8921 47.0172 64.097 47.0084C64.302 46.9995 64.3019 47.048 64.4277 47.1759C64.5581 47.3081 64.7164 47.2993 64.8422 47.3081C64.9679 47.3169 65.0145 47.6563 65.1635 47.6652C65.3126 47.674 65.4197 47.5506 65.443 47.4756C65.4663 47.4007 65.7224 47.4271 65.9459 47.3434C66.1695 47.2596 66.5654 46.3736 66.8448 46.3824C67.1242 46.3912 67.208 46.6072 67.3245 46.6204C67.4409 46.6293 67.9765 46.5896 68.0929 46.6866C68.2094 46.7791 68.4143 47.2905 68.5633 47.4668C68.7123 47.6475 68.9266 47.8327 69.0104 48.0883C69.0942 48.344 69.4249 48.1457 69.6624 48.322C69.8952 48.5027 69.6717 48.8774 69.6391 49.0493C69.6065 49.2212 69.7555 49.3799 69.7462 49.7017C69.7369 50.0235 69.6205 50.4467 69.6205 50.4467C69.6205 50.4467 69.8999 50.5878 70.1002 50.7376C70.3051 50.8875 70.4727 51.2931 70.5705 51.3768C70.6683 51.4606 71.0176 51.368 71.1573 51.4518C71.2971 51.5355 70.9757 51.6589 70.9757 51.7735C70.9757 51.8882 71.5858 52.0469 71.5765 52.2452C71.5672 52.4436 71.5113 52.5846 71.3297 52.6993C71.148 52.8139 71.1806 53.1886 71.1806 53.3517C71.1806 53.5148 71.5532 53.4266 71.5765 53.6867C71.5998 53.9468 71.3436 53.9688 71.3436 53.9688C71.3436 53.9688 71.3669 54.5066 71.3436 54.6388C71.3204 54.7711 70.5938 55.2119 70.3843 55.2119C70.1747 55.2119 70.0117 54.846 69.8394 54.846C69.6671 54.846 69.2106 55.0356 68.5773 55.0179C67.9439 55.0003 67.4362 54.8196 67.2639 54.8108C67.0916 54.8019 66.8355 55.0268 66.5793 55.0268C66.3232 55.0268 65.8016 55.1854 65.5873 55.8863C65.3731 56.5828 64.6699 56.812 64.6699 56.812C64.6699 56.812 64.6606 57.3322 64.7025 57.5173C64.7444 57.7069 64.9493 57.6849 64.9493 57.6849C64.9493 57.6849 64.9586 57.9978 64.9586 58.2888C64.9586 58.5797 65.4709 58.9588 65.6013 59.1087C65.7317 59.2586 65.4942 59.9639 65.4942 59.9639C65.4942 59.9639 65.2939 59.5759 65.2148 59.5759C65.1356 59.5759 65.1077 59.9903 65.1077 59.9903L64.7025 59.5848H64.5767C64.451 59.5848 64.451 59.5671 64.097 59.2542C63.7477 58.9412 63.8409 58.5929 63.6686 58.5841C63.4963 58.5753 63.3286 58.7428 63.2075 58.7649C63.0911 58.7825 61.5821 58.7472 61.5216 58.6591C61.4564 58.5753 61.5449 57.4733 61.5449 57.2088C61.5449 56.9443 61.2235 56.8209 60.8603 56.8209C60.497 56.8209 59.8124 57.0192 59.6448 57.1294C59.4724 57.244 59.5376 57.3366 59.6773 57.4512C59.8171 57.5658 59.8264 57.848 59.8171 58.0816C59.8078 58.3152 59.6448 58.3637 59.6448 58.3637L59.668 59.0999C59.668 59.0999 59.668 59.9771 59.1557 60.581C58.6434 61.1849 58.4618 62.2385 58.4618 62.3707C58.4618 62.5029 57.9169 63.3713 57.9169 63.3713C57.9169 63.3713 57.9262 63.5785 57.9402 63.746C57.9495 63.918 57.6421 63.9929 57.6002 64.1604C57.5583 64.3279 57.7306 64.4073 57.74 64.5086C57.7493 64.6144 57.7726 65.0376 57.903 65.1478C58.0287 65.2624 58.0194 65.4388 57.9682 65.5049C57.9169 65.571 57.903 65.7782 58.0101 65.8619C58.1172 65.9457 58.364 65.8708 58.5224 65.7958C58.6807 65.7209 58.9834 65.5975 59.1744 65.7033C59.3653 65.8091 59.3886 66.0603 59.3886 66.0603C59.3886 66.0603 59.3979 67.061 59.4305 67.202C59.4631 67.3431 60.1244 67.634 60.1244 67.634C60.1244 67.634 60.2083 68.5685 60.2222 68.7184C60.2316 68.8683 60.6507 69.578 60.7671 69.7367C60.8836 69.8954 61.014 70.1246 60.8649 70.1246C60.7159 70.1246 60.5343 69.8513 60.4365 69.7367C60.3387 69.6221 60.0639 68.9653 59.8962 69.0094C59.7286 69.0578 59.7845 69.3003 59.8031 69.4237C59.8217 69.5207 60.0173 69.7499 60.2129 69.9836C60.4272 70.1246 60.646 70.2613 60.8696 70.4023C60.972 70.4023 61.0699 70.4023 61.1351 70.4111C61.3074 70.4376 61.7451 70.9577 61.9454 70.9577C62.1457 70.9577 62.1922 70.8255 62.481 70.777C62.7697 70.7285 62.9094 71.1341 63.2727 71.4559C63.4404 71.6058 63.636 71.8085 63.7943 71.9981C65.8062 72.959 68.1209 73.8054 70.7615 74.3432C80.169 76.2607 91.663 73.9905 98.2902 66.8317C102.463 62.3266 103.287 57.4204 103.683 55.062C105.248 45.7697 100.814 37.165 98.8211 33.2858M33.583 29.3626C32.0462 29.3626 30.798 28.2606 30.798 26.9029C30.798 25.5451 32.0462 24.4431 33.583 24.4431C35.1199 24.4431 36.368 25.5451 36.368 26.9029C36.368 28.2606 35.1199 29.3626 33.583 29.3626ZM57.4512 34.4099C56.4546 35.005 53.6416 36.4729 48.4442 36.6228C49.1288 36.5258 55.3694 35.534 58.4618 29.8166C61.6054 24.0067 58.7692 18.3599 58.4711 17.7868C61.992 21.8291 65.7177 29.4904 57.4512 34.4099Z" fill="black"/>
</g>
</g>
</g>
<defs>
<clipPath id="clip0_2_454">
<rect width="104" height="75" fill="white"/>
</clipPath>
</defs>
</svg>
