<svg width="412" height="295" viewBox="0 0 412 295" fill="none" xmlns="http://www.w3.org/2000/svg">
<g clip-path="url(#clip0_1_394)">
<g opacity="0.47">
<mask id="mask0_1_394" style="mask-type:luminance" maskUnits="userSpaceOnUse" x="0" y="0" width="412" height="295">
<path d="M411.982 0H0V295H411.982V0Z" fill="white"/>
</mask>
<g mask="url(#mask0_1_394)">
<path d="M391.428 130.959C391.189 130.508 389.694 127.612 388.218 125.012C355.802 68.1755 257.465 20.6329 191.12 26.9615C191.065 26.9615 191.009 26.9268 191.028 26.8748C192.633 19.1071 177.947 6.50188 176.176 5.58293C174.128 4.50794 158.095 -3.6239 143.022 1.95915C129.461 6.97003 130.439 18.0148 110.403 43.3465C99.4621 57.1655 98.3736 54.8941 92.0269 63.9449C78.4295 83.3468 77.4332 97.3391 75.6989 120.746C73.7802 146.546 54.9984 185.177 40.2571 185.316C37.2129 185.35 27.8774 183.72 16.2172 152.511C14.9441 151.193 14.4091 136.334 8.72659 134.184C8.0993 133.941 4.18796 132.554 1.80795 134.184C-2.28788 136.993 1.06997 146.702 7.13991 164.266C8.04395 166.867 9.46457 171.046 10.3133 173.664C11.2542 176.577 11.4571 177.374 12.1582 179.126C24.6118 210.283 43.7441 217.964 80.625 211.202C80.8833 211.15 81.1601 211.098 81.4184 211.046C102.635 206.971 111.473 198.181 131.454 187.309C134.387 185.714 137.229 184.275 140.051 182.905C140.107 182.94 140.125 182.94 140.199 182.992V266.495C140.199 279.638 152.357 290.284 167.357 290.284H203.85C216.47 290.284 226.894 282.464 229.44 272.078C229.274 272.043 229.053 272.009 228.647 271.939C227.54 271.749 227.171 270.864 227.171 270.864C227.171 270.864 226.949 269.685 226.949 269.304C226.949 268.923 225.381 268.42 224.828 268.004C224.274 267.587 224.367 266.478 223.721 266.339C223.093 266.183 222.614 267.709 221.654 267.674C220.677 267.639 220.474 265.784 220.511 264.605C220.547 263.426 221.304 258.935 221.304 258.935L222.909 256.421V254.635C222.909 254.635 224.938 249.711 225.326 249.191C225.713 248.671 225.584 247.267 225.75 246.746C225.916 246.226 227.189 246.33 227.189 246.33L231.543 240.366C231.543 240.366 231.451 239.1 231.673 238.771C231.894 238.441 232.78 238.406 232.78 238.406V237.436C232.78 236.777 231.673 234.696 231.433 234.28C231.174 233.864 231.599 231.471 231.23 231.419C230.842 231.384 229.625 229.859 229.477 229.598C229.329 229.338 229.477 227.969 229.477 227.969C229.477 227.969 229.034 227.709 228.813 227.24C228.61 226.772 228.61 226.113 229.108 225.368C229.606 224.622 229.569 223.807 229.108 221.883C228.647 219.958 226.433 217.947 226.433 217.947L225.75 217.652C225.068 217.357 225.178 217.444 223.665 215.641C222.153 213.838 220.972 212.121 220.972 210.144C220.972 208.168 224.2 207.63 224.2 207.63C224.2 207.63 224.108 203.556 224.2 202.533C224.293 201.51 226.082 201.753 226.71 201.284C227.337 200.816 227.245 198.857 226.71 198.701C226.175 198.545 225.012 199.793 225.012 199.793L223.112 194.54L216.987 187.708C216.987 187.708 217.005 185.298 216.987 184.414C216.968 183.53 216.691 182.888 216.322 182.888C215.953 182.888 215.861 183.634 215.308 183.634C214.754 183.634 214.644 182.559 214.754 182.16C214.865 181.761 213.979 180.669 213.979 180.669C213.979 180.669 215.751 181.518 216.322 181.484C216.894 181.449 217.263 180.79 217.263 180.79C217.263 180.79 217.282 177.652 217.263 177.426C217.245 177.184 218.352 176.369 218.352 175.901C218.352 175.432 217.946 174.964 217.946 174.566C217.946 174.167 218.592 173.178 218.666 172.866C218.739 172.537 219.754 170.474 220.492 170.508C221.23 170.526 222.761 172.051 223.333 172.051C223.905 172.051 224.422 171.202 224.422 171.202H226.138V170.612C226.138 170.612 226.783 170.612 227.448 170.63C228.112 170.647 228.333 170.162 228.333 170.162L228.444 168.41L231.082 168.532L232.152 167.838L232.263 165.757L233.979 166.746C233.979 166.746 235.03 165.185 236.008 165.289C237.005 165.393 237.447 167.023 237.613 167.041C237.779 167.058 238.259 166.174 238.997 166.174C239.735 166.174 241.082 167.907 241.137 168.584C241.193 169.26 240.123 170.439 240.123 170.439V171.583C240.123 171.583 240.344 173.213 242.503 173.282C244.661 173.352 245.141 171.722 246.562 172.658C247.982 173.595 246.746 173.993 246.746 173.993C246.746 173.993 245.307 175.554 246.211 176.126C247.115 176.681 246.857 178.397 246.801 179.871C246.746 181.345 245.067 182.455 245.086 182.888C245.104 183.339 246.34 183.495 246.34 184.657C246.34 185.818 245.657 186.096 245.362 186.581C245.067 187.067 244.384 187.5 244.477 188.107C244.569 188.714 243.499 189.407 243.499 189.407C243.499 189.407 244.975 190.326 245.75 190.448C246.506 190.552 248.204 188.454 248.628 187.968C249.052 187.483 250.325 187.257 250.325 186.963C250.325 186.668 251.008 185.749 251.377 185.784C251.764 185.818 253.111 184.934 253.923 184.899C254.735 184.865 254.735 185.055 255.233 185.558C255.749 186.078 256.377 186.044 256.875 186.078C257.373 186.113 257.558 187.448 258.148 187.483C258.738 187.518 259.163 187.032 259.255 186.737C259.347 186.443 260.362 186.547 261.247 186.217C262.133 185.888 263.701 182.403 264.808 182.437C265.915 182.472 266.247 183.322 266.709 183.374C267.17 183.408 269.292 183.252 269.753 183.634C270.214 183.998 271.026 186.009 271.616 186.703C272.207 187.413 273.055 188.142 273.387 189.147C273.719 190.153 275.029 189.373 275.97 190.066C276.893 190.777 276.007 192.251 275.878 192.927C275.749 193.603 276.339 194.228 276.302 195.493C276.266 196.759 275.804 198.424 275.804 198.424C275.804 198.424 276.911 198.978 277.705 199.568C278.516 200.157 279.181 201.753 279.568 202.082C279.955 202.411 281.339 202.047 281.893 202.377C282.446 202.706 281.173 203.192 281.173 203.642C281.173 204.093 283.59 204.717 283.553 205.498C283.516 206.278 283.295 206.833 282.575 207.284C281.856 207.734 281.985 209.208 281.985 209.85C281.985 210.491 283.461 210.144 283.553 211.167C283.645 212.19 282.631 212.277 282.631 212.277C282.631 212.277 282.723 214.392 282.631 214.913C282.538 215.433 279.66 217.167 278.83 217.167C278 217.167 277.354 215.728 276.671 215.728C275.989 215.728 274.181 216.473 271.672 216.404C269.162 216.334 267.151 215.623 266.469 215.589C265.786 215.554 264.771 216.438 263.757 216.438C262.742 216.438 260.676 217.063 259.827 219.819C258.978 222.559 256.192 223.461 256.192 223.461C256.192 223.461 256.155 225.507 256.321 226.235C256.487 226.98 257.299 226.894 257.299 226.894C257.299 226.894 257.336 228.125 257.336 229.269C257.336 230.413 259.366 231.904 259.882 232.494C260.399 233.084 259.458 235.858 259.458 235.858C259.458 235.858 258.664 234.332 258.351 234.332C258.037 234.332 257.927 235.962 257.927 235.962L256.321 234.367H255.823C255.325 234.367 255.325 234.297 253.923 233.066C252.539 231.835 252.908 230.465 252.226 230.431C251.543 230.396 250.879 231.055 250.399 231.142C249.938 231.211 243.96 231.072 243.72 230.725C243.462 230.396 243.812 226.061 243.812 225.021C243.812 223.981 242.539 223.495 241.1 223.495C239.661 223.495 236.949 224.275 236.285 224.709C235.602 225.16 235.861 225.524 236.414 225.975C236.968 226.425 237.005 227.535 236.968 228.454C236.931 229.373 236.285 229.564 236.285 229.564L236.377 232.459C236.377 232.459 236.377 235.91 234.348 238.285C232.318 240.661 231.599 244.804 231.599 245.325C231.599 245.845 229.44 249.26 229.44 249.26C229.44 249.26 229.477 250.075 229.532 250.734C229.569 251.41 228.352 251.705 228.186 252.364C228.02 253.023 228.702 253.335 228.739 253.734C228.776 254.15 228.868 255.814 229.385 256.248C229.883 256.699 229.846 257.392 229.643 257.652C229.44 257.913 229.385 258.727 229.809 259.057C230.234 259.386 231.211 259.091 231.839 258.797C232.466 258.502 233.665 258.017 234.422 258.433C235.178 258.849 235.27 259.837 235.27 259.837C235.27 259.837 235.307 263.773 235.436 264.328C235.565 264.883 238.185 266.027 238.185 266.027C238.185 266.027 238.517 269.703 238.573 270.292C238.61 270.882 240.27 273.673 240.731 274.298C241.193 274.922 241.709 275.823 241.119 275.823C240.528 275.823 239.809 274.748 239.421 274.298C239.034 273.847 237.945 271.263 237.281 271.437C236.617 271.627 236.839 272.581 236.912 273.066C236.986 273.448 237.761 274.35 238.536 275.268C239.385 275.823 240.252 276.361 241.137 276.916C241.543 276.916 241.931 276.916 242.189 276.95C242.872 277.054 244.606 279.1 245.399 279.1C246.193 279.1 246.377 278.58 247.521 278.389C248.665 278.199 249.218 279.794 250.657 281.06C251.322 281.649 252.096 282.447 252.724 283.192C260.694 286.972 269.863 290.301 280.324 292.416C317.593 299.959 363.127 291.029 389.381 262.871C405.911 245.151 409.177 225.853 410.745 216.577C416.944 180.027 399.38 146.182 391.484 130.924M133.041 115.493C126.952 115.493 122.008 111.158 122.008 105.818C122.008 100.477 126.952 96.1428 133.041 96.1428C139.129 96.1428 144.073 100.477 144.073 105.818C144.073 111.158 139.129 115.493 133.041 115.493ZM227.595 135.345C223.647 137.686 212.503 143.46 191.914 144.049C194.626 143.668 219.348 139.767 231.599 117.279C244.052 94.4262 232.816 72.2154 231.636 69.9614C245.584 85.8609 260.343 115.996 227.595 135.345Z" fill="#AB882F"/>
</g>
</g>
</g>
<defs>
<clipPath id="clip0_1_394">
<rect width="412" height="295" fill="white"/>
</clipPath>
</defs>
</svg>
