<svg width="78" height="46" viewBox="0 0 78 46" fill="none" xmlns="http://www.w3.org/2000/svg">
<path d="M3 20C1.34315 20 0 21.3431 0 23C0 24.6569 1.34315 26 3 26V20ZM77.1213 25.1213C78.2929 23.9497 78.2929 22.0503 77.1213 20.8787L58.0294 1.7868C56.8579 0.615224 54.9584 0.615224 53.7868 1.7868C52.6152 2.95837 52.6152 4.85786 53.7868 6.02944L70.7574 23L53.7868 39.9706C52.6152 41.1421 52.6152 43.0416 53.7868 44.2132C54.9584 45.3848 56.8579 45.3848 58.0294 44.2132L77.1213 25.1213ZM3 26H75V20H3V26Z" fill="#D8C79D"/>
</svg>
